# vtk DataFile Version 2.0
ball_fine, Created by Gmsh 4.13.1 
ASCII
DATASET UNSTRUCTURED_GRID
POINTS 226 double
0 0 -0.04500000178813934
0.009143142960965633 -0.006642803549766541 -0.04355773702263832
-0.003492299001663923 -0.0107483733445406 -0.04355773702263832
0.03256233409047127 -0.02365764044225216 -0.0201248787343502
0.02742960304021835 -0.01992853917181492 -0.02958834916353226
0.03657282143831253 -0.01328569836914539 -0.02260352857410908
-0.0113016152754426 0 -0.04355770349502563
-0.003492299001663923 0.0107483733445406 -0.04355773702263832
0.009143142960965633 0.006642803549766541 -0.04355773702263832
0.03873139619827271 -0.01992858946323395 -0.01130178850144148
-0.01243745908141136 -0.0382792130112648 -0.02012489177286625
-0.001333766733296216 -0.03888828679919243 -0.0226035863161087
-0.006984678562730551 -0.04299399256706238 -0.01130181830376387
-0.04024918004870415 0 -0.02012470364570618
-0.03739727661013603 -0.01074840407818556 -0.02260343916714191
-0.04304815828800201 -0.006642826367169619 -0.01130172610282898
-0.01243745908141136 0.0382792130112648 -0.02012489177286625
-0.02177871204912663 0.03224540501832962 -0.02260357327759266
-0.01962030865252018 0.03888845443725586 -0.01130184251815081
0.03256233409047127 0.02365764044225216 -0.0201248787343502
0.02393734455108643 0.0306770633906126 -0.02260357886552811
0.03092213906347752 0.03067719377577305 -0.01130183693021536
0.03092213906347752 -0.03067719377577305 -0.01130183693021536
-0.01962030865252018 -0.03888845443725586 -0.01130184251815081
-0.04304815828800201 0.006642826367169619 -0.01130172610282898
-0.006984678562730551 0.04299399256706238 -0.01130181830376387
0.03873139619827271 0.01992858946323395 -0.01130178850144148
0.01243745908141136 -0.0382792130112648 0.02012489177286625
0.02177871204912663 -0.03224540501832962 0.02260357327759266
0.01047696825116873 -0.03224534168839455 0.0295883622020483
-0.03256233409047127 -0.02365764044225216 0.0201248787343502
-0.02393734455108643 -0.0306770633906126 0.02260357886552811
-0.02742960304021835 -0.01992853917181492 0.02958834916353226
-0.03256233409047127 0.02365764044225216 0.0201248787343502
-0.03657282143831253 0.01328569836914539 0.02260352857410908
-0.02742960304021835 0.01992853917181492 0.02958834916353226
0.01243745908141136 0.0382792130112648 0.02012489177286625
0.001333766733296216 0.03888828679919243 0.0226035863161087
0.01047696825116873 0.03224534168839455 0.0295883622020483
0.04024918004870415 0 0.02012470364570618
0.03739727661013603 0.01074840407818556 0.02260343916714191
0.03390487283468246 0 0.02958816662430763
0.0113016152754426 0 0.04355770349502563
0.003492299001663923 0.0107483733445406 0.04355773702263832
0 0 0.04500000178813934
0.02365784160792828 0 0.03827932476997375
0.01628101617097855 0.01182883512228727 0.04024931415915489
0.02871870808303356 0.0118288854137063 0.03256245329976082
0.007310501765459776 0.02249979041516781 0.0382794514298439
0.02012441121041775 0.02365777082741261 0.03256252408027649
0.03096852079033852 0.02249986119568348 0.02365812845528126
0.02177871204912663 0.03224540501832962 0.02260357327759266
-0.009143142960965633 0.006642803549766541 0.04355773702263832
-0.006218878086656332 0.01913937926292419 0.04024934768676758
-0.002375532407313585 0.0309683233499527 0.03256255760788918
-0.01913952268660069 0.01390551310032606 0.03827944025397301
-0.01628116890788078 0.0264500305056572 0.03256255015730858
-0.01182909775525331 0.0364055261015892 0.02365819551050663
-0.02393734455108643 0.0306770633906126 0.02260357886552811
-0.009143142960965633 -0.006642803549766541 0.04355773702263832
-0.02012444473803043 0 0.0402493067085743
-0.03018675185739994 0.007310567423701286 0.0325624905526638
-0.01913952268660069 -0.01390551310032606 0.03827944025397301
-0.03018675185739994 -0.007310567423701286 0.0325624905526638
-0.03827915713191032 1.094841883819697e-09 0.02365811727941036
-0.03657282143831253 -0.01328569743782282 0.02260352857410908
0.003492299001663923 -0.0107483733445406 0.04355773702263832
-0.006218877620995045 -0.01913937926292419 0.04024934768676758
-0.01628116704523563 -0.02645003236830235 0.03256255015730858
0.007310501765459776 -0.02249979041516781 0.0382794514298439
-0.002375531475991011 -0.0309683233499527 0.03256255388259888
-0.01182909868657589 -0.0364055261015892 0.02365819551050663
0.001333766733296216 -0.03888828679919243 0.0226035863161087
0.0162810143083334 -0.01182883512228727 0.04024931415915489
0.02012441121041775 -0.02365776896476746 0.03256252408027649
0.02871870808303356 -0.01182888448238373 0.03256245329976082
0.03096852079033852 -0.02249986492097378 0.02365813031792641
0.03739727661013603 -0.01074840407818556 0.02260343916714191
0.04304815828800201 0.006642826367169619 0.01130172610282898
0.04279760643839836 0.01390556804835796 1.094842994042722e-09
0.03878118470311165 0.0191394854336977 0.01243782602250576
0.03640586882829666 0.02645019441843033 -1.0249423532116e-09
0.03018692694604397 0.03096850961446762 0.01243788190186024
0.02645035646855831 0.03640575334429741 -1.094852430938431e-09
0.01962030865252018 0.03888845443725586 0.01130184251815081
0.006984678562730551 0.04299399256706238 0.01130181830376387
5.474246056458298e-10 0.04500000178813934 1.09484921129166e-09
-0.006218934431672096 0.04279748350381851 0.01243786886334419
-0.01390574127435684 0.04279755055904388 -2.049885239330251e-08
-0.02012467756867409 0.03827919438481331 0.01243787724524736
-0.02645035646855831 0.03640575334429741 -1.094852430938431e-09
-0.03092213906347752 0.03067719377577305 0.01130183693021536
-0.03873139619827271 0.01992858946323395 0.01130178850144148
-0.04279760643839836 0.01390556804835796 1.094842994042722e-09
-0.04262459278106689 0.007310593035072088 0.01243781298398972
-0.04500000178813934 -1.691151574334526e-08 2.767338891374038e-08
-0.0426245853304863 -0.007310604210942984 0.01243784558027983
-0.04279760643839836 -0.01390556804835796 -1.094842994042722e-09
-0.03873139619827271 -0.01992858946323395 0.01130178850144148
-0.03092213906347752 -0.03067719377577305 0.01130183693021536
-0.02645035646855831 -0.03640575334429741 1.094852430938431e-09
-0.02012471482157707 -0.03827918320894241 0.01243785861879587
-0.0139057757332921 -0.04279754310846329 -3.587294017393106e-08
-0.006218967959284782 -0.04279748350381851 0.01243785675615072
-5.474246056458298e-10 -0.04500000178813934 -1.09484921129166e-09
0.006984678562730551 -0.04299399256706238 0.01130181830376387
0.01962030865252018 -0.03888845443725586 0.01130184251815081
0.02645035646855831 -0.03640575334429741 1.094852430938431e-09
0.03018691577017307 -0.03096854127943516 0.01243782602250576
0.03640583902597427 -0.02645023725926876 -8.609504220657982e-08
0.03878118470311165 -0.01913954503834248 0.01243774872273207
0.04279760643839836 -0.01390556804835796 -1.094842994042722e-09
0.04304815828800201 -0.006642826367169619 0.01130172610282898
0.01390577666461468 0.04279754310846329 -1.634300732057995e-15
0.02012470364570618 0.03827917203307152 -0.01243789494037628
0.006218960508704185 0.04279747232794762 -0.01243788842111826
0.01182909868657589 0.0364055261015892 -0.02365819551050663
-0.001333766733296216 0.03888828679919243 -0.0226035863161087
-0.03640583530068398 0.02645024657249451 -4.902905372547537e-15
-0.03018685802817345 0.03096858039498329 -0.01243787817656994
-0.03878114372491837 0.01913957670331001 -0.01243783626705408
-0.03096852079033852 0.02249986492097378 -0.02365813031792641
-0.03739727661013603 0.01074840407818556 -0.02260343916714191
-0.03640583530068398 -0.02645024657249451 5.019641335755757e-15
-0.03878114372491837 -0.01913957670331001 -0.01243783626705408
-0.03018685802817345 -0.03096858039498329 -0.01243787910789251
-0.03096852079033852 -0.02249986119568348 -0.02365812845528126
-0.02177871204912663 -0.03224540501832962 -0.02260357327759266
0.01390577480196953 -0.04279754310846329 1.751036483507978e-15
0.006218960974365473 -0.04279747232794762 -0.01243788842111826
0.02012470364570618 -0.03827917203307152 -0.01243789494037628
0.01182909775525331 -0.0364055261015892 -0.02365819551050663
0.02393734455108643 -0.0306770633906126 -0.02260357886552811
0.04500000178813934 0 0
0.04262459278106689 -0.007310589775443077 -0.01243782043457031
0.04262459278106689 0.007310589775443077 -0.01243782043457031
0.03827915713191032 -1.094841883819697e-09 -0.02365811727941036
0.03657282143831253 0.01328569743782282 -0.02260352857410908
0.02742960304021835 0.01992853917181492 -0.02958834916353226
0.01913952268660069 0.01390551310032606 -0.03827944025397301
0.01628115959465504 0.02645006403326988 -0.03256252780556679
0.00621885759755969 0.01913945749402046 -0.04024931043386459
0.002375511219725013 0.03096838481724262 -0.0325624980032444
-0.007310501299798489 0.02249979041516781 -0.0382794514298439
-0.01047696825116873 0.03224534168839455 -0.02958836406469345
-0.02012447454035282 0.02365772239863873 -0.03256252035498619
-0.01628105528652668 0.01182881649583578 -0.040249302983284
-0.02871876209974289 0.01182882767170668 -0.03256242349743843
-0.02365784160792828 0 -0.03827932476997375
-0.03390487283468246 0 -0.02958816662430763
-0.02871875651180744 -0.01182886864989996 -0.03256241977214813
-0.01628105901181698 -0.01182889565825462 -0.04024928063154221
-0.02012447640299797 -0.02365779131650925 -0.03256247192621231
-0.007310501299798489 -0.02249979041516781 -0.0382794514298439
-0.01047696825116873 -0.03224534168839455 -0.02958836406469345
0.03018676862120628 0.007310555782169104 -0.03256247937679291
0.03018679283559322 -0.007310598623007536 -0.03256244957447052
0.02012449875473976 -3.331049214239101e-08 -0.0402492843568325
0.01913952268660069 -0.01390551310032606 -0.03827944025397301
0.002375565702095628 -0.03096834570169449 -0.03256253525614738
0.006218941882252693 -0.01913942769169807 -0.04024931415915489
0.01628122478723526 -0.02645006403326988 -0.0325624942779541
-3.485199061639688e-09 -3.379591884122846e-09 2.153900814649834e-09
0.001096797409905153 0.00337551437266098 -0.02249999947866529
0.01857883483256099 0.009386246096899378 -0.009216123606301675
0.01408216930716312 -0.0126707514554285 -0.0126307211348724
-0.009513345772963411 0.01851407369585653 -0.009216140705579762
-0.01884044568319598 -0.00197338067478716 -0.01263062824731283
-0.008391010681472813 -0.02369930019911764 -0.007792812526752501
-0.01407365834858883 -0.01268247075547678 0.01263072303643242
0.009200894915617012 -0.01883895603266191 0.008791291433538656
0.01922240360325551 0.001208257938877939 0.01186671221602313
-0.0007838174534737005 0.003273823053726339 0.02250000178585479
-0.01840161769497983 0.009403076703439366 0.009573292570479173
0.007447527140111421 0.02011285046357759 0.007451837535747358
0.007887884168670657 0.02427607444901023 -0.01043571300923581
-0.008378724577724077 -0.0120597928599953 -0.02348518982604634
0.02731998426789807 -0.005113858982285243 -0.002970161185554094
-0.006758979997024202 0.01984611678406401 0.01857926599629817
-7.664661030064995e-06 -0.01470793555342221 0.02374572132055023
-0.02733106311400094 -0.004925458666261151 0.003070442701203428
0.00878930833507461 -0.02733638155989236 -0.00590438806896307
0.01775725932653069 -2.922837006439593e-06 -0.02339175696378264
-0.01436756908385582 0.01043516111479344 -0.02339175944216735
0.02373192489117766 0.01613767757766281 0.005382793738222895
0.01277321886916753 0.01313513970146876 0.02175373510119318
-0.02484193239716471 0.01227000310683231 -0.00578906187907634
-0.01734769401391698 -0.0001359104782354347 0.02353605227270991
-0.005715778332039928 -0.02655626119025306 0.008141913380212716
-0.006783418082397357 0.02823682074776704 0.004113486676128974
0.01601630113460706 -0.01233068827733438 0.02268992177238537
-0.02283918182966949 -0.01709085167105063 -0.007211584099628456
0.0218415771495802 -0.01986592629194051 -0.0007792392743293641
0.00331771907841072 -0.02179102836688831 -0.01955277295822055
0.01199971144163434 0.01490245596987719 -0.02255906066065189
0.01312763746976564 -0.006841589926896091 0.0009953399068302574
-0.005238078387786688 0.01328244425638753 0.003975401515209873
-0.002455343212089966 0.02013640645029467 -0.02277872644784375
-0.01207283976820516 -0.008259655778588084 -0.001222238311700548
0.006847607888835431 -0.009641014519697937 -0.02822279507521926
0.0001119205539447578 -0.008215242750094606 -0.01215495868731203
0.00394422179768484 0.01016258021212076 -0.009813044766925377
-0.02069019127929573 0.02292043418092832 0.003756669572701393
0.005873637723049423 -0.004043957023809047 0.01301601529615958
0.01196919326672708 0.0005112668393253677 0.02900267857230833
0.02599636201322254 -0.01188852217955745 0.01094115352085427
-0.01966346109986093 -0.02383633914753957 0.005231148001840791
0.01128744264092669 0.007711983792386546 0.002494361443412881
-0.008230751533214151 -0.0001193128745120963 0.01123246309025801
-0.004187112714596516 -0.003042082163689411 -0.0328095768470013
-0.03166993496091281 0 -0.01004689296291866
-0.004609763682469273 0.03012344142625081 -0.01324812100713923
0.02143573722433836 0.0216606015491025 -0.0132481403914507
-0.001600693075650203 -0.004926320900867271 0.03283713977114736
0.005603731709956263 -0.02710444229908216 0.01844259260926346
0.02724141522311682 -0.01370127969975467 -0.01325627199166781
0.005608661706641147 0.027128287979268 0.01845881783871713
-0.02723779843779925 -0.01369946057471002 0.01325451200023441
-0.0138212350006458 0.005037766897456512 -0.002301342878749004
-0.01145496751008876 -0.02534816107712916 -0.01853496250958849
-0.02055090289756497 0.0187118803007854 0.01851970778352429
0.01681334372206592 0.02660326821639023 -0.0002406656950513257
0.0308415166846121 0.004610369062627944 0.005783339385902848
-0.02166972438356406 -0.01301573735721699 -0.02025173539755065
-0.01029525499205288 -0.02315950726707495 0.02058223753951796
-9.520898053065834e-05 -0.01311131078336155 0.001398817972790962

CELLS 800 4000
4 55 178 172 187
4 48 172 178 185
4 164 136 177 182
4 64 180 173 187
4 53 172 55 178
4 53 48 172 178
4 40 184 171 185
4 135 164 136 177
4 12 104 168 188
4 12 168 104 181
4 174 189 85 221
4 176 183 148 223
4 94 173 180 186
4 104 181 168 188
4 148 183 176 209
4 64 94 173 180
4 55 172 52 187
4 86 189 175 221
4 26 184 164 222
4 55 53 52 172
4 26 164 135 222
4 43 172 48 185
4 165 195 164 201
4 137 136 164 182
4 121 17 166 183
4 163 167 200 218
4 167 183 176 223
4 32 169 187 224
4 177 182 136 215
4 174 184 51 185
4 121 183 166 186
4 172 196 174 207
4 163 183 167 218
4 48 43 53 172
4 164 182 165 201
4 170 188 181 214
4 137 136 135 164
4 121 17 119 166
4 34 64 173 187
4 163 201 183 218
4 64 180 187 217
4 55 178 187 220
4 34 64 94 173
4 50 184 40 185
4 62 187 179 224
4 165 200 195 201
4 51 184 174 221
4 119 121 166 186
4 163 200 201 218
4 41 171 39 205
4 181 188 105 214
4 182 200 165 201
4 174 185 51 216
4 179 187 62 213
4 137 182 164 194
4 12 168 102 188
4 137 194 164 212
4 32 187 62 224
4 94 180 93 186
4 183 201 166 218
4 113 86 175 221
4 41 47 171 204
4 165 192 132 215
4 174 185 172 207
4 165 181 132 192
4 41 40 39 171
4 122 183 186 210
4 135 164 177 222
4 138 194 137 212
4 47 40 171 185
4 79 184 26 222
4 170 190 28 205
4 79 26 135 222
4 41 39 77 205
4 171 184 40 222
4 102 168 23 206
4 48 185 178 216
4 47 185 171 204
4 40 41 47 171
4 43 172 185 204
4 108 170 28 205
4 41 171 190 204
4 163 200 182 201
4 22 132 192 215
4 167 186 183 210
4 4 165 182 199
4 106 181 170 192
4 168 191 23 206
4 7 183 163 197
4 41 190 171 205
4 8 163 182 194
4 169 179 187 224
4 39 171 40 222
4 86 175 189 211
4 172 178 174 196
4 12 102 104 188
4 166 189 18 202
4 166 183 17 197
4 34 187 173 220
4 132 181 165 193
4 12 23 102 168
4 106 128 105 181
4 18 119 166 202
4 173 186 92 202
4 18 189 166 211
4 4 182 165 215
4 175 189 174 221
4 163 183 7 209
4 102 188 168 206
4 50 51 184 185
4 8 182 163 199
4 52 187 172 213
4 82 184 51 221
4 26 164 184 212
4 23 191 168 219
4 4 161 165 199
4 106 28 108 170
4 162 203 207 208
4 162 207 196 208
4 122 183 121 186
4 185 203 172 207
4 32 187 169 217
4 105 181 104 188
4 53 43 52 172
4 7 163 141 197
4 92 34 94 173
4 93 186 180 210
4 137 135 26 164
4 119 17 18 166
4 161 132 4 165
4 162 201 200 218
4 174 178 172 185
4 8 141 7 163
4 106 170 108 192
4 85 189 174 216
4 23 168 12 219
4 147 122 149 183
4 141 163 8 194
4 119 186 166 202
4 41 77 190 205
4 166 197 17 211
4 132 165 161 193
4 171 203 185 207
4 85 216 174 221
4 82 51 84 221
4 39 205 171 222
4 106 28 170 214
4 170 108 192 205
4 28 190 170 214
4 43 52 172 213
4 163 176 167 183
4 8 199 163 209
4 162 195 200 201
4 137 164 26 212
4 17 18 166 211
4 4 165 132 215
4 47 50 40 185
4 92 34 173 220
4 85 84 216 221
4 8 163 7 209
4 164 177 165 182
4 28 190 76 205
4 107 181 106 192
4 4 182 158 199
4 86 115 175 211
4 8 182 139 194
4 93 180 95 210
4 151 176 148 223
4 161 193 165 199
4 172 187 178 208
4 148 176 151 209
4 54 48 178 216
4 163 167 176 200
4 143 183 7 197
4 178 187 173 208
4 163 194 141 197
4 173 187 180 208
4 180 187 169 208
4 132 131 181 193
4 113 86 115 175
4 165 177 164 195
4 168 176 167 198
4 17 183 145 197
4 167 176 168 223
4 164 201 195 207
4 94 95 93 180
4 176 183 163 209
4 89 189 178 220
4 179 188 169 225
4 53 54 48 178
4 168 167 191 198
4 34 61 187 220
4 174 189 175 196
4 179 187 172 208
4 67 179 62 213
4 55 56 178 220
4 62 179 67 224
4 165 182 177 215
4 134 177 136 215
4 175 189 166 196
4 8 157 182 199
4 108 28 76 205
4 170 188 179 225
4 179 169 203 225
4 169 187 179 208
4 43 185 46 204
4 176 198 168 200
4 178 189 57 216
4 149 167 210 223
4 73 190 179 213
4 167 168 191 223
4 173 202 92 220
4 173 187 178 220
4 89 202 189 220
4 135 136 134 177
4 179 190 69 214
4 167 198 176 200
4 51 82 50 184
4 144 17 197 211
4 100 23 191 206
4 53 55 56 178
4 169 187 180 217
4 73 204 190 213
4 43 172 204 213
4 180 191 97 210
4 170 179 203 225
4 34 61 64 187
4 171 185 203 204
4 144 17 145 197
4 75 41 77 190
4 156 182 4 215
4 64 96 180 217
4 32 63 187 217
4 123 191 180 217
4 43 48 46 185
4 18 189 88 202
4 107 128 106 181
4 172 203 185 204
4 146 7 183 209
4 64 96 94 180
4 172 187 179 213
4 26 184 81 212
4 89 178 57 220
4 104 105 128 181
4 41 190 75 204
4 150 148 149 223
4 87 57 189 216
4 174 196 175 201
4 8 1 199 209
4 32 217 169 224
4 57 178 89 189
4 162 195 201 207
4 97 191 124 210
4 118 92 186 202
4 69 190 74 214
4 149 210 14 223
4 166 175 196 201
4 97 123 180 217
4 8 1 157 199
4 73 179 69 213
4 90 18 88 202
4 63 64 187 217
4 41 75 45 204
4 183 197 166 201
4 137 155 136 182
4 121 145 17 183
4 121 122 147 183
4 60 187 52 213
4 163 197 183 201
4 112 205 39 222
4 116 194 175 197
4 100 102 23 206
4 61 55 187 220
4 148 147 149 183
4 4 156 158 182
4 87 37 57 216
4 150 151 148 223
4 136 182 156 215
4 4 158 161 199
4 29 69 74 214
4 66 73 69 213
4 5 136 156 215
4 73 69 179 190
4 6 146 148 209
4 97 180 123 191
4 15 97 124 210
4 12 104 129 181
4 61 35 55 220
4 58 89 57 220
4 63 65 64 217
4 198 200 167 218
4 97 98 123 217
4 8 157 139 182
4 143 146 7 183
4 123 206 191 217
4 14 210 124 223
4 146 183 148 209
4 153 176 193 199
4 32 63 62 187
4 166 186 183 218
4 165 181 195 225
4 177 164 207 222
4 88 189 18 211
4 93 118 92 186
4 183 186 167 218
4 32 31 217 224
4 84 51 36 216
4 85 84 36 216
4 178 196 172 208
4 144 16 17 211
4 19 138 137 212
4 137 26 19 212
4 17 16 18 211
4 106 27 28 214
4 106 105 27 214
4 8 7 0 209
4 8 0 1 209
4 43 44 52 213
4 4 132 3 215
4 3 132 22 215
4 50 80 40 184
4 164 175 207 221
4 170 195 181 225
4 10 12 11 219
4 10 23 12 219
4 149 13 14 210
4 149 122 13 210
4 124 210 191 223
4 163 199 182 200
4 165 200 181 225
4 165 182 199 200
4 41 45 47 204
4 32 31 30 217
4 92 33 34 220
4 125 100 23 191
4 130 132 131 181
4 23 125 191 219
4 171 177 207 222
4 60 55 52 187
4 111 192 177 215
4 143 7 141 197
4 9 192 111 215
4 181 200 168 225
4 32 62 68 224
4 153 193 176 219
4 116 175 194 212
4 79 81 26 184
4 80 40 184 222
4 18 90 119 202
4 154 193 153 219
4 33 92 202 220
4 43 204 44 213
4 116 197 175 211
4 206 217 31 224
4 116 194 20 212
4 174 207 175 221
4 74 190 28 214
4 68 62 67 224
4 85 87 189 216
4 116 142 194 197
4 91 33 92 202
4 111 177 192 205
4 116 117 197 211
4 153 193 160 199
4 135 177 133 222
4 91 33 202 220
4 168 188 198 206
4 178 185 174 216
4 170 192 181 195
4 139 141 8 194
4 166 189 175 211
4 153 176 199 209
4 43 42 44 204
4 165 181 192 195
4 113 84 85 221
4 153 199 2 209
4 162 200 198 218
4 168 198 188 225
4 171 195 190 203
4 171 185 184 207
4 169 188 179 224
4 164 175 201 207
4 174 201 175 207
4 107 106 108 192
4 168 181 193 200
4 184 185 174 207
4 177 195 171 207
4 131 132 161 193
4 30 31 206 217
4 164 194 182 201
4 190 195 170 203
4 180 173 208 218
4 182 194 163 201
4 165 193 181 200
4 191 219 127 223
4 180 208 198 218
4 188 169 198 206
4 173 196 178 208
4 164 195 177 207
4 44 204 42 213
4 188 198 169 225
4 171 190 195 205
4 81 212 184 221
4 170 195 190 205
4 122 121 120 186
4 86 189 25 211
4 112 177 205 222
4 179 188 170 214
4 169 198 180 208
4 169 217 206 224
4 112 177 111 205
4 111 192 109 205
4 116 142 140 194
4 126 191 127 223
4 168 188 181 225
4 172 203 179 208
4 168 176 219 223
4 9 109 111 192
4 11 129 131 193
4 181 188 170 225
4 184 207 164 222
4 112 77 39 205
4 169 179 203 208
4 129 181 131 193
4 153 159 160 193
4 30 31 99 206
4 166 196 202 218
4 103 105 104 188
4 154 159 153 193
4 139 182 155 194
4 51 185 49 216
4 114 113 175 221
4 50 49 51 185
4 116 140 20 194
4 139 155 138 194
4 171 203 190 204
4 21 212 81 221
4 130 181 107 192
4 164 207 184 221
4 127 191 125 219
4 142 116 117 197
4 72 214 188 224
4 168 219 191 223
4 76 190 77 205
4 127 126 125 191
4 118 186 119 202
4 119 120 121 186
4 112 133 177 222
4 196 201 174 207
4 180 186 173 218
4 113 115 114 175
4 22 130 107 192
4 153 160 2 199
4 122 186 120 210
4 166 202 186 218
4 88 25 189 211
4 93 24 186 210
4 72 188 71 224
4 30 206 99 217
4 74 76 28 190
4 112 133 111 177
4 38 51 49 216
4 85 37 87 216
4 88 18 25 211
4 26 81 21 212
4 146 6 7 209
4 29 74 28 214
4 59 60 52 213
4 156 4 5 215
4 169 208 203 225
4 14 15 124 210
4 122 120 24 210
4 166 201 196 218
4 23 127 125 219
4 173 202 196 218
4 180 167 210 218
4 135 134 133 177
4 111 109 110 205
4 32 65 63 217
4 85 87 86 189
4 34 35 61 220
4 91 202 58 220
4 101 188 102 206
4 109 192 108 205
4 141 194 142 197
4 76 75 77 190
4 88 25 86 189
4 135 133 79 222
4 87 57 89 189
4 180 210 186 218
4 46 185 47 204
4 53 56 54 178
4 191 210 167 223
4 160 193 161 199
4 95 94 96 180
4 88 189 89 202
4 89 58 202 220
4 152 153 176 219
4 116 175 115 211
4 116 114 175 212
4 101 206 31 224
4 104 102 103 188
4 66 204 73 213
4 70 179 69 214
4 123 98 206 217
4 186 210 167 218
4 98 99 206 217
4 73 74 69 190
4 57 54 178 216
4 120 186 24 210
4 95 180 97 210
4 175 164 212 221
4 101 188 206 224
4 196 201 162 218
4 110 109 108 205
4 165 195 200 225
4 153 151 176 209
4 143 145 183 197
4 88 89 90 202
4 11 193 154 219
4 89 58 91 202
4 151 152 176 223
4 168 198 191 206
4 174 189 178 216
4 158 182 157 199
4 39 40 78 222
4 6 148 151 209
4 153 2 151 209
4 86 25 115 211
4 117 116 115 211
4 116 20 114 212
4 54 38 48 216
4 57 37 54 216
4 73 75 190 204
4 29 70 69 214
4 59 67 62 213
4 66 69 67 213
4 5 134 136 215
4 142 141 140 194
4 93 95 24 210
4 15 95 97 210
4 57 178 56 220
4 171 207 184 222
4 97 123 124 191
4 66 42 204 213
4 123 100 191 206
4 152 154 153 219
4 188 214 179 224
4 69 179 67 213
4 98 97 96 217
4 64 65 96 217
4 71 72 103 188
4 55 35 56 220
4 58 57 56 220
4 170 190 179 214
4 167 191 180 210
4 123 98 99 206
4 178 189 174 196
4 22 192 9 215
4 97 180 96 217
4 20 194 138 212
4 184 212 164 221
4 73 45 75 204
4 159 161 160 193
4 50 47 49 185
4 166 197 175 201
4 70 67 179 224
4 166 196 189 202
4 173 186 202 218
4 101 71 188 224
4 66 42 73 204
4 82 81 184 221
4 119 118 120 186
4 179 190 170 203
4 184 207 174 221
4 180 191 167 198
4 100 125 123 191
4 120 93 24 186
4 61 63 64 187
4 169 198 208 225
4 176 199 163 200
4 11 159 154 193
4 82 80 50 184
4 170 192 195 205
4 82 83 81 221
4 107 130 128 181
4 143 144 145 197
4 167 180 198 218
4 149 14 150 223
4 112 111 110 205
4 103 102 101 188
4 128 129 104 181
4 9 22 109 192
4 175 194 164 201
4 79 80 184 222
4 48 49 46 185
4 140 138 20 194
4 83 21 81 221
4 156 136 155 182
4 147 145 121 183
4 1 158 157 199
4 194 197 163 201
4 165 199 193 200
4 115 116 114 175
4 165 192 177 195
4 171 195 203 207
4 61 55 60 187
4 157 155 139 182
4 146 143 145 183
4 70 214 72 224
4 157 158 156 182
4 148 146 147 183
4 45 46 47 204
4 177 171 195 205
4 103 101 71 188
4 153 151 152 176
4 168 193 176 200
4 175 197 166 211
4 151 150 152 223
4 80 78 40 222
4 164 194 175 212
4 63 60 62 187
4 90 118 119 202
4 152 219 176 223
4 93 120 118 186
4 100 101 102 206
4 118 91 92 202
4 46 49 47 185
4 131 129 130 181
4 46 42 43 204
4 114 175 212 221
4 70 179 214 224
4 162 201 196 207
4 175 197 194 201
4 152 127 219 223
4 39 78 112 222
4 134 111 133 177
4 67 69 70 179
4 124 191 126 223
4 80 81 79 184
4 176 193 168 219
4 57 54 56 178
4 171 205 177 222
4 177 192 165 215
4 70 68 67 224
4 162 200 195 225
4 95 96 97 180
4 31 32 68 224
4 163 199 176 209
4 193 199 176 200
4 117 144 197 211
4 124 126 14 223
4 70 72 71 224
4 101 31 71 224
4 162 203 195 207
4 114 212 21 221
4 110 108 76 205
4 177 195 192 205
4 1 2 199 209
4 31 101 99 206
4 152 126 127 223
4 160 161 158 199
4 162 208 198 225
4 108 109 107 192
4 141 139 140 194
4 125 126 124 191
4 84 83 82 221
4 159 131 161 193
4 143 141 142 197
4 162 203 208 225
4 117 144 142 197
4 87 89 88 189
4 88 86 87 189
4 11 131 159 193
4 76 74 75 190
4 169 206 188 224
4 114 21 83 221
4 75 74 73 190
4 82 81 80 184
4 139 138 140 194
4 2 160 1 199
4 22 107 109 192
4 124 123 125 191
4 1 0 2 209
4 0 7 6 209
4 117 16 144 211
4 20 138 19 212
4 16 25 18 211
4 26 21 19 212
4 63 61 60 187
4 66 44 42 213
4 59 52 44 213
4 13 15 14 210
4 122 24 13 210
4 5 4 3 215
4 3 22 9 215
4 27 105 72 214
4 29 28 27 214
4 36 37 85 216
4 36 51 38 216
4 130 129 128 181
4 30 65 32 217
4 98 30 99 217
4 157 156 155 182
4 146 145 147 183
4 11 154 10 219
4 10 127 23 219
4 196 162 208 218
4 91 58 33 220
4 34 33 35 220
4 168 200 198 225
4 112 110 77 205
4 198 208 162 218
4 79 78 80 222
4 162 198 200 225
4 173 196 208 218
4 112 78 133 222
4 110 76 77 205
4 123 99 100 206
4 89 91 90 202
4 170 203 195 225
4 114 83 113 221
4 195 203 162 225
4 113 83 84 221
4 42 45 73 204
4 144 143 142 197
4 158 1 160 199
4 118 90 91 202
4 79 133 78 222
4 45 42 46 204
4 99 101 100 206
4 6 151 2 209
4 117 115 25 211
4 114 20 21 212
4 59 66 67 213
4 24 95 15 210
4 9 134 5 215
4 29 72 70 214
4 38 54 37 216
4 96 65 98 217
4 126 152 150 223
4 154 152 127 219
4 58 56 35 220
4 126 150 14 223
4 71 68 70 224
4 31 68 71 224
4 0 6 2 209
4 25 16 117 211
4 19 21 20 212
4 13 24 15 210
4 59 44 66 213
4 3 9 5 215
4 29 27 72 214
4 38 37 36 216
4 98 65 30 217
4 154 127 10 219
4 58 35 33 220
4 181 214 106 170
4 106 214 181 105
4 186 94 92 93
4 186 92 94 173
4 223 183 149 167
4 223 149 183 148
4 210 183 149 122
4 210 149 183 167
4 221 86 85 113
4 221 85 86 189
4 207 208 172 196
4 172 208 207 203
4 216 221 51 174
4 51 221 216 84
4 213 190 172 204
4 213 172 190 179
4 203 172 190 204
4 203 190 172 179
4 192 130 132 22
4 192 132 130 181
4 194 155 137 182
4 194 137 155 138
4 220 189 173 202
4 220 173 189 178
4 196 173 189 202
4 196 189 173 178
4 213 60 62 59
4 213 62 60 187
4 168 12 193 181
4 129 12 193 11
4 129 193 12 181
4 217 191 169 206
4 217 169 191 180
4 198 169 191 206
4 198 191 169 180
4 111 215 134 9
4 134 215 111 177
4 49 216 48 38
4 48 216 49 185
4 72 188 105 103
4 105 188 72 214
4 12 193 219 168
4 12 219 193 11

CELL_TYPES 800
10
10
10
10
10
10
10
10
10
10
10
10
10
10
10
10
10
10
10
10
10
10
10
10
10
10
10
10
10
10
10
10
10
10
10
10
10
10
10
10
10
10
10
10
10
10
10
10
10
10
10
10
10
10
10
10
10
10
10
10
10
10
10
10
10
10
10
10
10
10
10
10
10
10
10
10
10
10
10
10
10
10
10
10
10
10
10
10
10
10
10
10
10
10
10
10
10
10
10
10
10
10
10
10
10
10
10
10
10
10
10
10
10
10
10
10
10
10
10
10
10
10
10
10
10
10
10
10
10
10
10
10
10
10
10
10
10
10
10
10
10
10
10
10
10
10
10
10
10
10
10
10
10
10
10
10
10
10
10
10
10
10
10
10
10
10
10
10
10
10
10
10
10
10
10
10
10
10
10
10
10
10
10
10
10
10
10
10
10
10
10
10
10
10
10
10
10
10
10
10
10
10
10
10
10
10
10
10
10
10
10
10
10
10
10
10
10
10
10
10
10
10
10
10
10
10
10
10
10
10
10
10
10
10
10
10
10
10
10
10
10
10
10
10
10
10
10
10
10
10
10
10
10
10
10
10
10
10
10
10
10
10
10
10
10
10
10
10
10
10
10
10
10
10
10
10
10
10
10
10
10
10
10
10
10
10
10
10
10
10
10
10
10
10
10
10
10
10
10
10
10
10
10
10
10
10
10
10
10
10
10
10
10
10
10
10
10
10
10
10
10
10
10
10
10
10
10
10
10
10
10
10
10
10
10
10
10
10
10
10
10
10
10
10
10
10
10
10
10
10
10
10
10
10
10
10
10
10
10
10
10
10
10
10
10
10
10
10
10
10
10
10
10
10
10
10
10
10
10
10
10
10
10
10
10
10
10
10
10
10
10
10
10
10
10
10
10
10
10
10
10
10
10
10
10
10
10
10
10
10
10
10
10
10
10
10
10
10
10
10
10
10
10
10
10
10
10
10
10
10
10
10
10
10
10
10
10
10
10
10
10
10
10
10
10
10
10
10
10
10
10
10
10
10
10
10
10
10
10
10
10
10
10
10
10
10
10
10
10
10
10
10
10
10
10
10
10
10
10
10
10
10
10
10
10
10
10
10
10
10
10
10
10
10
10
10
10
10
10
10
10
10
10
10
10
10
10
10
10
10
10
10
10
10
10
10
10
10
10
10
10
10
10
10
10
10
10
10
10
10
10
10
10
10
10
10
10
10
10
10
10
10
10
10
10
10
10
10
10
10
10
10
10
10
10
10
10
10
10
10
10
10
10
10
10
10
10
10
10
10
10
10
10
10
10
10
10
10
10
10
10
10
10
10
10
10
10
10
10
10
10
10
10
10
10
10
10
10
10
10
10
10
10
10
10
10
10
10
10
10
10
10
10
10
10
10
10
10
10
10
10
10
10
10
10
10
10
10
10
10
10
10
10
10
10
10
10
10
10
10
10
10
10
10
10
10
10
10
10
10
10
10
10
10
10
10
10
10
10
10
10
10
10
10
10
10
10
10
10
10
10
10
10
10
10
10
10
10
10
10
10
10
10
10
10
10
10
10
10
10
10
10
10
10
10
10
10
10
10
10
10
10
10
10
10
10
10
10
10
10
10
10
10
10
10
10
10
10
10
10
10
10
10
10
10
10
10
10
10
10
10
10
10
10
10
10
10
10
10
10
10
10
10
10
10
10
10
10
10
10
10
10
10
10
10
10
10
10
10
10
10
10
10
10
10
10
10
10
10
10
10
10
10
10
10
10
10
10
10
10
10
10
10
10
10
10
10
10
10
10
10
10
10
10
10
10
10
10
10
10
