# vtk DataFile Version 2.0
ball_regular, Created by Gmsh 4.13.1 
ASCII
DATASET UNSTRUCTURED_GRID
POINTS 43 double
0 0 -0.04500000178813934
0.01913952268660069 -0.01390551310032606 -0.03827944025397301
-0.007310501299798489 -0.02249979041516781 -0.0382794514298439
0.03256233409047127 -0.02365764044225216 -0.0201248787343502
0.03827915713191032 0 -0.02365811727941036
-0.02365784160792828 0 -0.03827932476997375
-0.007310501299798489 0.02249979041516781 -0.0382794514298439
0.01913952268660069 0.01390551310032606 -0.03827944025397301
0.04279760643839836 -0.01390556804835796 0
-0.01243745908141136 -0.0382792130112648 -0.02012489177286625
0.01182909868657589 -0.0364055261015892 -0.02365819551050663
0 -0.04500000178813934 0
-0.04024918004870415 0 -0.02012470364570618
-0.03096852079033852 -0.02249986119568348 -0.02365812845528126
-0.04279760643839836 -0.01390556804835796 0
-0.01243745908141136 0.0382792130112648 -0.02012489177286625
-0.03096852079033852 0.02249986492097378 -0.02365813031792641
-0.02645035460591316 0.03640575334429741 0
0.03256233409047127 0.02365764044225216 -0.0201248787343502
0.01182909775525331 0.0364055261015892 -0.02365819551050663
0.02645035646855831 0.03640575334429741 0
0.02645035460591316 -0.03640575334429741 0
-0.02645035646855831 -0.03640575334429741 0
-0.04279760643839836 0.01390556804835796 0
0 0.04500000178813934 0
0.04279760643839836 0.01390556804835796 0
0.01243745908141136 -0.0382792130112648 0.02012489177286625
0.03096852079033852 -0.02249986492097378 0.02365813031792641
0.007310501299798489 -0.02249979041516781 0.0382794514298439
-0.03256233409047127 -0.02365764044225216 0.0201248787343502
-0.01182909775525331 -0.0364055261015892 0.02365819551050663
-0.01913952268660069 -0.01390551310032606 0.03827944025397301
-0.03256233409047127 0.02365764044225216 0.0201248787343502
-0.03827915713191032 0 0.02365811727941036
-0.01913952268660069 0.01390551310032606 0.03827944025397301
0.01243745908141136 0.0382792130112648 0.02012489177286625
-0.01182909868657589 0.0364055261015892 0.02365819551050663
0.007310501299798489 0.02249979041516781 0.0382794514298439
0.04024918004870415 0 0.02012470364570618
0.03096852079033852 0.02249986119568348 0.02365812845528126
0.02365784160792828 0 0.03827932476997375
0 0 0.04500000178813934
2.319203244380286e-09 -6.938893903907228e-18 -5.974032019073761e-09

CELLS 80 400
4 31 34 41 42
4 7 0 1 42
4 41 40 28 42
4 37 40 41 42
4 6 5 0 42
4 2 0 5 42
4 28 31 41 42
4 41 34 37 42
4 0 7 6 42
4 2 1 0 42
4 40 38 27 42
4 40 39 38 42
4 16 12 5 42
4 12 13 5 42
4 33 31 29 42
4 34 33 32 42
4 7 4 18 42
4 1 3 4 42
4 12 14 13 42
4 25 38 39 42
4 12 16 23 42
4 27 38 8 42
4 23 14 12 42
4 25 8 38 42
4 30 29 31 42
4 36 34 32 42
4 19 7 18 42
4 10 3 1 42
4 27 26 28 42
4 39 37 35 42
4 16 6 15 42
4 2 13 9 42
4 33 29 14 42
4 32 33 23 42
4 18 4 25 42
4 4 3 8 42
4 29 22 14 42
4 17 32 23 42
4 18 25 20 42
4 8 3 21 42
4 35 20 39 42
4 21 26 27 42
4 22 9 13 42
4 15 17 16 42
4 30 28 26 42
4 37 36 35 42
4 19 15 6 42
4 9 10 2 42
4 29 30 22 42
4 17 36 32 42
4 18 20 19 42
4 21 3 10 42
4 24 20 35 42
4 9 22 11 42
4 11 26 21 42
4 17 15 24 42
4 30 26 11 42
4 36 24 35 42
4 15 19 24 42
4 11 10 9 42
4 34 31 33 42
4 7 1 4 42
4 27 28 40 42
4 39 40 37 42
4 16 5 6 42
4 5 13 2 42
4 30 31 28 42
4 37 34 36 42
4 19 6 7 42
4 2 10 1 42
4 22 13 14 42
4 20 25 39 42
4 23 16 17 42
4 21 27 8 42
4 23 33 14 42
4 25 4 8 42
4 22 30 11 42
4 17 24 36 42
4 24 19 20 42
4 11 21 10 42

CELL_TYPES 80
10
10
10
10
10
10
10
10
10
10
10
10
10
10
10
10
10
10
10
10
10
10
10
10
10
10
10
10
10
10
10
10
10
10
10
10
10
10
10
10
10
10
10
10
10
10
10
10
10
10
10
10
10
10
10
10
10
10
10
10
10
10
10
10
10
10
10
10
10
10
10
10
10
10
10
10
10
10
10
10
