# vtk DataFile Version 2.0
ball_coarse, Created by Gmsh 4.13.1 
ASCII
DATASET UNSTRUCTURED_GRID
POINTS 12 double
0 0 -0.04500000178813934
0.0325620025396347 -0.02365740016102791 -0.02012467570602894
-0.01243732590228319 -0.03827880322933197 -0.02012467570602894
0.0325620025396347 0.02365740016102791 -0.02012467570602894
-0.04024912416934967 0 -0.02012467570602894
-0.01243732590228319 0.03827880322933197 -0.02012467570602894
0.04024912416934967 0 0.02012467570602894
0.01243732590228319 -0.03827880322933197 0.02012467570602894
-0.0325620025396347 -0.02365740016102791 0.02012467570602894
-0.0325620025396347 0.02365740016102791 0.02012467570602894
0.01243732590228319 0.03827880322933197 0.02012467570602894
0 0 0.04500000178813934

CELLS 16 80
4 8 2 9 7
4 2 5 9 10
4 7 2 3 1
4 7 2 10 3
4 7 2 9 10
4 10 2 5 3
4 10 6 7 3
4 9 4 2 8
4 3 6 7 1
4 2 5 4 9
4 2 0 5 3
4 9 11 8 7
4 9 11 7 10
4 2 0 3 1
4 5 0 2 4
4 6 7 11 10

CELL_TYPES 16
10
10
10
10
10
10
10
10
10
10
10
10
10
10
10
10
